<svg xmlns="http://www.w3.org/2000/svg" xmlns:xlink="http://www.w3.org/1999/xlink" width="400" height="400" viewBox="0 0 400 400">
<rect data-name="background" width="100%" height="100%" fill="none"/><g data-name="icon" fill="#FFFFFF" data="id:7681647" transform="translate(108.51275953160706,80.23848316506432) scale(1.8297362590027262)">
  
 <path d="m56.211 74.617v4.2227c0 0.74219-0.60156 1.3438-1.3359 1.3438-0.74219 0-1.3477-0.60156-1.3477-1.3438v-4.2227c0-0.74219 0.60156-1.3438 1.3477-1.3438 0.73438 0.003906 1.3359 0.60156 1.3359 1.3438zm38.105-48.105v-0.89062c-0.10156-1.043-0.55859-2.0117-1.3047-2.7617l-5.6445-5.6406c-1.7656-1.7695-4.6484-1.7656-6.4102 0l-16.332 16.332v-16.988c0-2.25-1.832-4.0781-4.082-4.0781h-50.777c-2.25 0-4.082 1.8281-4.082 4.0781v56.191c0 3.8398 0.99219 7.4688 2.7812 10.219 1.918 2.9258 4.5156 4.5391 7.3164 4.5391h56.246c2.7891 0 5.3633-1.4688 7.2812-4.1406 1.8086-2.5352 2.8125-5.8789 2.8125-9.4219v-1.8555c0-0.74219-0.60156-1.3438-1.3477-1.3438l-16.148 0.003906v-13.098l28.387-28.387c0.74609-0.74609 1.2031-1.7148 1.3047-2.7578zm-40.789 12.234v-4.2227c0-0.74219 0.60156-1.3438 1.3477-1.3438 0.73438 0 1.3359 0.60156 1.3359 1.3438v4.2227c0 0.74219-0.60156 1.3438-1.3359 1.3438-0.74219 0-1.3477-0.60156-1.3477-1.3438zm0-13.363v-4.2227c0-0.74219 0.60156-1.3438 1.3477-1.3438 0.73438 0 1.3359 0.60156 1.3359 1.3438v4.2227c0 0.74219-0.60156 1.3438-1.3359 1.3438-0.74219-0.003906-1.3477-0.60547-1.3477-1.3438zm-36.746 49.234v4.2227c0 0.74219-0.60156 1.3438-1.3477 1.3438-0.74219 0-1.3359-0.60156-1.3359-1.3438v-4.2227c0-0.74219 0.59375-1.3438 1.3359-1.3438 0.74219 0.003906 1.3477 0.60156 1.3477 1.3438zm0-13.363v4.2227c0 0.74219-0.60156 1.3438-1.3477 1.3438-0.74219 0-1.3359-0.60156-1.3359-1.3438v-4.2227c0-0.74219 0.59375-1.3438 1.3359-1.3438 0.74219 0 1.3477 0.60156 1.3477 1.3438zm0-13.367v4.2227c0 0.74219-0.60156 1.3438-1.3477 1.3438-0.74219 0-1.3359-0.60156-1.3359-1.3438v-4.2227c0-0.74219 0.59375-1.3438 1.3359-1.3438 0.74219 0.003906 1.3477 0.60156 1.3477 1.3438zm0-13.363v4.2227c0 0.74219-0.60156 1.3438-1.3477 1.3438-0.74219 0-1.3359-0.60156-1.3359-1.3438v-4.2227c0-0.74219 0.59375-1.3438 1.3359-1.3438 0.74219 0 1.3477 0.60156 1.3477 1.3438zm0-13.367v4.2227c0 0.74219-0.60156 1.3438-1.3477 1.3438-0.74219 0-1.3359-0.60156-1.3359-1.3438v-4.2227c0-0.74219 0.59375-1.3438 1.3359-1.3438 0.74219 0 1.3477 0.60156 1.3477 1.3438zm74.324 6.2148-6.0312 6.0391-8.2617-8.2539 6.043-6.043c0.71484-0.71484 1.8906-0.71875 2.6172 0l5.6328 5.6406c0.72266 0.71875 0.71875 1.9141 0 2.6172zm-39.398 39.406-8.2539-8.2539 31.461-31.465 8.2539 8.2539zm-9.6836-5.8828 7.3047 7.3047-12.414 5.1094zm22.73 22.48c-1.8203-2.5352-2.8242-5.8789-2.8242-9.4219v-13.609l-9.2773 9.2812c-0.12891 0.125-0.28125 0.22656-0.44141 0.29297l-17.258 7.1016c-1.0781 0.44922-2.2031-0.63672-1.7461-1.7539l7.1016-17.254c0.066406-0.16016 0.16016-0.3125 0.28906-0.4375l21.332-21.336v-19.676c0-0.76953-0.625-1.3945-1.3906-1.3945l-50.773 0.003906c-0.76562 0-1.3906 0.625-1.3906 1.3945v56.191c0 6.543 3.3828 12.07 7.4023 12.07h50.191c-0.42969-0.43359-0.83594-0.92188-1.2148-1.4531zm14.684-9.9336v0.51172c0 5.9961-3.3281 10.871-7.4102 10.871-4.082 0-7.4023-4.8789-7.4023-10.871v-0.51172z" fill-rule="evenodd"/>

  </g><g data-name="business_name" fill="#FFFFFF" data="id:357" transform="translate(63.01513613754907,242.86539907676965) scale(1.0540542239335495)"><path d="M1.2,43.36l0-1.28q2.92-0.4,2.92-2.4l0-17.48q0-2-2.92-2.4l0-1.28l6.64,0l14,16.76l0-13.08q0-2-2.92-2.4l0-1.28l7.88,0l0,1.28q-2.92,0.4-2.92,2.4l0,21.16l-2,0l-15.72-18.8l0,15.12q0,2,2.92,2.4l0,1.28l-7.88,0z M38.8,43.6q-3.96,0-6.78-2.48t-2.82-6.88t2.82-6.84t6.74-2.44q3.96,0,6.78,2.48t2.82,6.88t-2.82,6.84t-6.74,2.44z M39.56,42.08q1.68,0,2.66-1.52t0.98-4.56q0-3.92-1.48-6.72t-3.72-2.8q-1.68,0-2.66,1.5t-0.98,4.58q0,3.92,1.48,6.72t3.72,2.8z M58.44,43.56q-2.52,0-3.94-1.36t-1.42-4.04l0-9.76q0-0.88-0.24-1.18t-0.84-0.3l-1.84,0l0-1.12q3.64-1,5.6-4.36q0.32-0.52,0.88-0.52l0.56,0q0.72,0,0.72,0.72l-0.04,2.6q0,0.64,0.44,0.86t1.84,0.22l2.8,0l0,1.84l-2.8-0.16q-1.4-0.08-1.84,0.22t-0.44,1.26l0,9.36q0,1.88,0.44,2.82t1.68,0.94q1.32,0,2.32-0.72l0.64,0.92q-1.56,1.76-4.52,1.76z M75,43.6q-4,0-6.82-2.44t-2.82-6.8q0-4.44,2.92-6.92t6.96-2.48q3.16,0,5.18,1.5t2.02,3.94q0,2.2-1.74,2.98t-5.54,1.02l-3.32,0.2q-1.24,0.04-1,1.68q0.28,2.12,2.16,3.36t4.28,1.24q3.08,0,4.84-2.12l0.96,0.84q-0.72,1.4-2.9,2.7t-5.18,1.3z M71.88,33.28l2.08-0.12q2.36-0.16,3.18-0.74t0.82-1.98q0-1.68-0.84-2.82t-2.52-1.14q-1.88,0-2.9,1.38t-1.14,3.5q-0.04,1.12,0.24,1.54t1.08,0.38z  M93.08,43.36l0-1.28q2.76-0.36,2.76-2.4l0-17.48q0-2.04-2.76-2.4l0-1.28l11.04,0q14,0,14,12.2q0,3-0.92,5.3t-2.28,3.64t-3.22,2.2t-3.48,1.14t-3.26,0.28q-0.76,0-3.24-0.12t-3.64-0.12q-2.24,0-5,0.32z M104.2,41.68q4.04,0,6.02-3.04t1.98-7.92q0-5.04-2.06-7.82t-5.78-2.78l-0.56,0q-1.32,0-1.92,0.5t-0.6,1.62l0,17.4q0,2.04,2.92,2.04z M125.24,22.24q-1.16,0-2-0.82t-0.84-1.98q0-1.2,0.84-2.02t2-0.82t1.98,0.82t0.82,2.02q0,1.16-0.82,1.98t-1.98,0.82z M120.72,43.36l0-1.24q1.44-0.12,2-0.66t0.56-1.9l0-10.08q0-1.36-0.58-1.82t-1.98-0.34l0-1.24l5.6-1.04q1.76-0.32,1.76,1.4l0,13.12q0,1.36,0.56,1.9t1.96,0.66l0,1.24l-9.88,0z M140,43.6q-3.88,0-6.24-1.8q-0.8-1.56-0.74-3.04t1.14-1.48q0.84,0,1.12,0.88q1.32,4,5,4q1.84,0,2.64-0.76t0.8-1.88q0-1.2-0.96-1.8t-3.2-1.28q-2.88-0.88-4.6-2.28t-1.72-3.76q0-2.52,2.08-3.98t5.28-1.46q3.72,0,6,1.68q0.8,1.56,0.74,3.02t-1.14,1.46q-0.84,0-1.12-0.88q-1.32-3.92-4.72-3.92q-2.8,0-2.8,2.4q0,2.2,3.44,3.28q3.64,1.12,4.92,1.96q2.28,1.52,2.28,4q0,2.68-2.36,4.16t-5.84,1.48z M158.28,43.56q-2.52,0-3.94-1.36t-1.42-4.04l0-9.76q0-0.88-0.24-1.18t-0.84-0.3l-1.84,0l0-1.12q3.64-1,5.6-4.36q0.32-0.52,0.88-0.52l0.56,0q0.72,0,0.72,0.72l-0.04,2.6q0,0.64,0.44,0.86t1.84,0.22l2.8,0l0,1.84l-2.8-0.16q-1.4-0.08-1.84,0.22t-0.44,1.26l0,9.36q0,1.88,0.44,2.82t1.68,0.94q1.32,0,2.32-0.72l0.64,0.92q-1.56,1.76-4.52,1.76z M169.52,22.24q-1.16,0-2-0.82t-0.84-1.98q0-1.2,0.84-2.02t2-0.82t1.98,0.82t0.82,2.02q0,1.16-0.82,1.98t-1.98,0.82z M165,43.36l0-1.24q1.44-0.12,2-0.66t0.56-1.9l0-10.08q0-1.36-0.58-1.82t-1.98-0.34l0-1.24l5.6-1.04q1.76-0.32,1.76,1.4l0,13.12q0,1.36,0.56,1.9t1.96,0.66l0,1.24l-9.88,0z M182.44,43.6q-1.64,0-2.62-0.94t-0.98-2.78l0-18.24q0-1.36-0.58-1.82t-1.98-0.34l0-1.24l5.6-1.04q1.76-0.32,1.76,1.4l0,21.28q0,2.12,1.84,1.56l0,0.72q-0.72,1.44-3.04,1.44z M193.24,43.6q-1.64,0-2.62-0.94t-0.98-2.78l0-18.24q0-1.36-0.58-1.82t-1.98-0.34l0-1.24l5.6-1.04q1.76-0.32,1.76,1.4l0,21.28q0,2.12,1.84,1.56l0,0.72q-0.72,1.44-3.04,1.44z M208.32,43.6q-4,0-6.82-2.44t-2.82-6.8q0-4.44,2.92-6.92t6.96-2.48q3.16,0,5.18,1.5t2.02,3.94q0,2.2-1.74,2.98t-5.54,1.02l-3.32,0.2q-1.24,0.04-1,1.68q0.28,2.12,2.16,3.36t4.28,1.24q3.08,0,4.84-2.12l0.96,0.84q-0.72,1.4-2.9,2.7t-5.18,1.3z M205.2,33.28l2.08-0.12q2.36-0.16,3.18-0.74t0.82-1.98q0-1.68-0.84-2.82t-2.52-1.14q-1.88,0-2.9,1.38t-1.14,3.5q-0.04,1.12,0.24,1.54t1.08,0.38z M218.8,43.36l0-1.24q1.44-0.12,2-0.66t0.56-1.9l0-10.08q0-1.36-0.58-1.82t-1.98-0.34l0-1.24l5.6-1.04q0.84-0.16,1.3,0.18t0.46,1.06l0,0.84q0,0.36,0.16,0.52t0.42,0.08t0.5-0.36q2.2-2.48,5.04-2.48q1.88,0,3.02,1.08t1.14,2.6q0,1.28-0.72,2.02t-1.88,0.74q-1,0-1.66-0.54t-0.66-1.46q0-0.84-0.48-1.36t-1.24-0.52q-1.52,0-2.58,1.62t-1.06,4.42l0,6.08q0,1.36,0.58,1.9t2.14,0.66l0,1.24l-10.08,0z M242.76,51.28q-1.88,0-3.04-0.82t-1.16-2.18q0-0.96,0.62-1.64t1.74-0.68q1,0,1.5,0.58t0.56,1.26t0.34,1.26t0.88,0.58q1.16,0,1.84-1.88q0.8-2.04-0.32-4.8l-5.04-12.88q-0.64-1.64-1.3-2.36t-1.94-1.16l0-1.24l9.44,0l0,1.24q-1.56,0.44-1.78,1.14t0.5,2.38l3.08,7.72q0.44,1.16,0.84,1.14t0.84-1.18l1.44-3.8q1.12-2.96,1.28-4.46t-0.32-2.06t-1.84-0.88l0-1.24l7.8,0l0,1.24q-1.72,0.44-2.46,1.14t-1.38,2.38l-6.12,15.64q-1.16,3.04-2.48,4.3t-3.52,1.26z"/></g></svg>